<?xml version="1.0" encoding="utf-8"?>
<!-- Generator: Adobe Illustrator 19.0.0, SVG Export Plug-In . SVG Version: 6.00 Build 0)  -->
<svg version="1.1" id="Layer_1" xmlns="http://www.w3.org/2000/svg" xmlns:xlink="http://www.w3.org/1999/xlink" x="0px" y="0px"
	 viewBox="0 0 640 480" style="enable-background:new 0 0 640 480;" xml:space="preserve">
<style type="text/css">
	.st0{fill:#FFFFFF;stroke:#000000;stroke-miterlimit:10;}
	.st1{fill:#7D97AD;}
	.st2{fill:#02B3E4;}
	.st3{fill:#00035B;}
</style>
<path id="XMLID_1_" class="st0" d="M-88.5,25.5"/>
<g id="XMLID_16_">
	<path id="XMLID_18_" class="st1" d="M277.3,321c-9.1,2.4-15.4-11.6-45.9-29.2c0,0-7.9-5.4-19-9.8c-10.2-4-32.7-10.1-67.5-18.5
		c-34.8-8.4-59.2-16.2-73.2-23.7c-18.1-9.5-31.6-21.2-40.5-35.3c-8.9-14-13.3-29.8-13.3-47.2c0-19.1,5.4-37,16.3-53.6
		C45.2,87.2,61,74.6,81.9,66c20.9-8.6,44-12.9,69.5-12.9c28.1,0,52.9,4.5,74.3,13.6c21.5,9,38,22.4,49.5,39.9
		c11.5,17.6,17.7,37.5,18.6,59.7l-48.1,3.6c-2.6-24-11.3-42-26.2-54.3c-14.9-12.2-36.9-18.4-66.1-18.4c-30.3,0-52.4,5.6-66.3,16.7
		c-13.9,11.1-20.8,24.5-20.8,40.2c0,13.6,4.9,24.8,14.7,33.6c9.6,8.8,34.9,17.8,75.6,27c40.8,9.2,68.7,17.3,83.9,24.2
		c41.3,18.8,47.3,33.5,48.9,38.6C295.1,295.5,287.8,318.3,277.3,321z"/>
</g>
<g id="XMLID_14_">
	<g id="XMLID_10_">
		<g id="XMLID_9_">
			<path id="XMLID_15_" class="st2" d="M258,303.5c1-7,38.2-235.7,35-235.7c-20.2,0-9.9-20.6,45.8-20.6h15.5c2.6,0,4.9,1.6,5.8,4.1
				c27.7,77.7,48.3,157.5,62.1,239.2c0.9,5.6,8.2,7,11.2,2.2l150.5-243c1-1.6,2.6-2.6,4.5-2.8l40.9-4.8c4.2-0.5,7.6,3.3,6.6,7.4
				l-16.6,70.2l-39.9,200.1c-3.4,17.8-5.1,32-5.1,42.6c0,14.4,8.7,21.6,26.2,21.6c6.9,0,15.8-0.6,26.5-1.7c4.1-0.4,7.5,3.2,6.6,7.3
				l-0.7,3.5c-0.5,2.4-2.4,4.3-4.8,4.8l-108.1,21.4c-4.3,0.8-8-2.9-7.2-7.2l55.2-277.3c1.3-6.6-7.5-10.1-11.1-4.4L408.4,368.1
				c-0.9,1.5-2.5,2.5-4.2,2.8l-15.5,2.4c-3.7,0.6-7-2.3-7-6c0-58.7-13.2-130.5-39.6-215.4c-1.9-6-10.5-5.6-11.8,0.6
				c-3.5,18.1-8.8,44.7-15.5,76.9c-9,43.6-13.5,65.4-16.4,75c-13.3,44.7-25.6,85.7-63.2,114.4c-32.2,24.6-66.9,27.7-78.3,28.6
				c-58.7,4.8-99.3-26.5-110-34.6c-3.4-2.6-6.4-5.3-9.1-8.1c-0.8-0.8-8.8-9.1-15-20.5c-7-12.9-30.4-59.6-12.1-63.2
				s24.4-0.3,39.2-3.6c8.4,5.7,8.4,36.8,31.6,60.8c13.9,14.4,31.4,19.3,37.7,21c0,0,18.3,4.8,39.2,1.5
				C184.2,396.7,247.7,378.7,258,303.5z"/>
		</g>
	</g>
</g>
<path id="XMLID_4_" class="st3" d="M239.7,280.4"/>
<path id="XMLID_11_" class="st3" d="M361.9,77.4"/>
<path id="XMLID_43_" d="M408.3,434"/>
<path id="XMLID_37_" class="st3" d="M375.4,380.3"/>
</svg>
